# xmcd
#
# Track frame offsets: 
#        183
#        16183
#        36483
#        62655
#        84610
#        100748
#        133470
#        160125
#        175660
#        203920
#        232820
#        263658
#        278853
#        300643
#        316455
#
# Disc length: 4526 seconds
#
# Revision: 14
# Processed by: cddbd v1.5.2PL0 Copyright (c) Steve Scherf et al.
# Submitted via: ExactAudioCopy v1.3
#
DISCID=c811ac0f
DTITLE=Roy Buchanan - Sweet Dreams - The Anthology Disc 1
DYEAR=1992
DGENRE=Blues
TTITLE0=Baltimore
TTITLE1=Black Autumn
TTITLE2=The Story Of Isaac
TTITLE3=There'll Always Be
TTITLE4=Sweet Dreams
TTITLE5=Pete's Blue
TTITLE6=The Messiah Will Come Again
TTITLE7=Tribute To Elmore James
TTITLE8=After Hours
TTITLE9=Five String Blues
TTITLE10=C.C. Rider - Live
TTITLE11=My Baby Says She's Gonna Leave Me
TTITLE12=Please Don't Turn Me Away
TTITLE13=Country Preacher
TTITLE14=Wayfaring Pilgrim
EXTD=YEAR: 1992
EXTT0=
EXTT1=
EXTT2=
EXTT3=
EXTT4=
EXTT5=
EXTT6=
EXTT7=
EXTT8=
EXTT9=
EXTT10=
EXTT11=
EXTT12=
EXTT13=
EXTT14=
PLAYORDER=
